<svg width="100%" height="100%" viewBox="0 0 16 16" fill="none" xmlns="http://www.w3.org/2000/svg">
<path opacity="0.93" d="M8.00001 1.33334C4.32001 1.33334 1.33334 4.32 1.33334 8C1.33334 11.68 4.32001 14.6667 8.00001 14.6667C11.68 14.6667 14.6667 11.68 14.6667 8C14.6667 4.32 11.68 1.33334 8.00001 1.33334ZM10.9133 9.56667L9.43334 11.0467C9.07334 11.4067 8.60668 11.58 8.14001 11.58C7.67334 11.58 7.20001 11.4 6.84668 11.0467C6.50001 10.7 6.30668 10.24 6.30668 9.75334C6.30668 9.26667 6.50001 8.8 6.84668 8.46L7.78668 7.52C7.98001 7.32667 8.30001 7.32667 8.49334 7.52C8.68668 7.71334 8.68668 8.03334 8.49334 8.22667L7.55334 9.16667C7.39334 9.32667 7.30668 9.53334 7.30668 9.75334C7.30668 9.97334 7.39334 10.1867 7.55334 10.34C7.88001 10.6667 8.40668 10.6667 8.73334 10.34L10.2133 8.86C11.06 8.01334 11.06 6.64 10.2133 5.79334C9.36668 4.94667 7.99334 4.94667 7.14668 5.79334L5.53334 7.40667C5.19334 7.74667 5.00668 8.19334 5.00668 8.66667C5.00668 9.14 5.19334 9.59334 5.53334 9.92667C5.72668 10.12 5.72668 10.44 5.53334 10.6333C5.34001 10.8267 5.02001 10.8267 4.82668 10.6333C4.29334 10.12 4.00001 9.42 4.00001 8.67334C4.00001 7.92667 4.28668 7.22667 4.81334 6.7L6.42668 5.08667C7.66001 3.85334 9.67334 3.85334 10.9067 5.08667C12.1467 6.32 12.1467 8.33334 10.9133 9.56667Z" fill="#59B4D1"/>
</svg>
