<svg width="100%" height="100%" viewBox="0 0 16 16" fill="none" xmlns="http://www.w3.org/2000/svg">
<path d="M8.00001 1.33334C4.32001 1.33334 1.33334 4.32001 1.33334 8.00001C1.33334 11.68 4.32001 14.6667 8.00001 14.6667C11.68 14.6667 14.6667 11.68 14.6667 8.00001C14.6667 4.32001 11.68 1.33334 8.00001 1.33334ZM11.9 9.40001C11.8733 9.46001 11.84 9.51334 11.7933 9.56001L9.76668 11.5867C9.66668 11.6867 9.54001 11.7333 9.41334 11.7333C9.28668 11.7333 9.16001 11.6867 9.06001 11.5867C8.86668 11.3933 8.86668 11.0733 9.06001 10.88L10.2333 9.70668H4.56668C4.29334 9.70668 4.06668 9.48001 4.06668 9.20668C4.06668 8.93334 4.29334 8.70668 4.56668 8.70668H11.44C11.5067 8.70668 11.5667 8.72001 11.6333 8.74668C11.7533 8.80001 11.8533 8.89334 11.9067 9.02001C11.9467 9.14001 11.9467 9.28001 11.9 9.40001ZM11.4333 7.28668H4.56668C4.50001 7.28668 4.43334 7.27334 4.37334 7.24668C4.25334 7.19334 4.15334 7.10001 4.10001 6.97334C4.04668 6.85334 4.04668 6.71334 4.10001 6.59334C4.12668 6.53334 4.16001 6.48001 4.20668 6.43334L6.23334 4.40668C6.42668 4.21334 6.74668 4.21334 6.94001 4.40668C7.13334 4.60001 7.13334 4.92001 6.94001 5.11334L5.77334 6.28668H11.44C11.7133 6.28668 11.94 6.51334 11.94 6.78668C11.94 7.06001 11.7133 7.28668 11.4333 7.28668Z" fill="#9E57E5"/>
</svg>
