<svg width="100%" height="100%" viewBox="0 0 17 16" fill="none" xmlns="http://www.w3.org/2000/svg">
<path d="M12.94 4.9C12.94 4.95719 12.8972 5 12.84 5C12.8184 5 12.7931 4.99102 12.7711 4.96894C12.749 4.94686 12.74 4.92156 12.74 4.9V1.8C12.74 1.74281 12.7828 1.7 12.84 1.7C12.8972 1.7 12.94 1.74281 12.94 1.8V4.9Z" stroke="currentColor"/>
<path d="M8.49999 10.5C8.16666 10.5 7.89999 10.7667 7.89999 11.1V14.2C7.89999 14.5333 8.16666 14.8 8.49999 14.8C8.83333 14.8 9.09999 14.5333 9.09999 14.2V11.1C9.09999 10.7733 8.83333 10.5 8.49999 10.5Z" fill="currentColor"/>
<path d="M4.16 5.5C4.49333 5.5 4.76 5.23333 4.76 4.9V1.8C4.76 1.46666 4.49333 1.2 4.16 1.2C3.82666 1.2 3.56 1.46666 3.56 1.8V4.9C3.56 5.22666 3.82666 5.5 4.16 5.5Z" fill="currentColor"/>
<path d="M5.40001 6.78H2.92001C2.58667 6.78 2.32001 7.04667 2.32001 7.38C2.32001 7.71333 2.58667 7.98 2.92001 7.98H3.56001V14.2C3.56001 14.5333 3.82667 14.8 4.16001 14.8C4.49334 14.8 4.76001 14.5333 4.76001 14.2V7.98H5.40001C5.73334 7.98 6.00001 7.71333 6.00001 7.38C6.00001 7.04667 5.72667 6.78 5.40001 6.78Z" fill="currentColor"/>
<path d="M14.08 6.78H11.6C11.2667 6.78 11 7.04667 11 7.38C11 7.71333 11.2667 7.98 11.6 7.98H12.24V14.2C12.24 14.5333 12.5067 14.8 12.84 14.8C13.1733 14.8 13.44 14.5333 13.44 14.2V7.98H14.08C14.4133 7.98 14.68 7.71333 14.68 7.38C14.68 7.04667 14.4133 6.78 14.08 6.78Z" fill="currentColor"/>
<path d="M9.74 8.02H9.1V1.8C9.1 1.46666 8.83334 1.2 8.5 1.2C8.16667 1.2 7.9 1.46666 7.9 1.8V8.02H7.26C6.92667 8.02 6.66 8.28666 6.66 8.62C6.66 8.95333 6.92667 9.22 7.26 9.22H9.74C10.0733 9.22 10.34 8.95333 10.34 8.62C10.34 8.28666 10.0733 8.02 9.74 8.02Z" fill="currentColor"/>
</svg>
