<svg width="100%" height="100%" viewBox="0 0 20 20" fill="none" xmlns="http://www.w3.org/2000/svg">
<path d="M9.99995 7.76667C10.9916 7.76667 11.8 6.95834 11.8 5.96667C11.8 4.975 10.9916 4.16667 9.99995 4.16667C9.00828 4.16667 8.19995 4.975 8.19995 5.96667C8.19995 6.95834 9.00828 7.76667 9.99995 7.76667Z" stroke="currentColor" stroke-width="1.5" stroke-linecap="round" stroke-linejoin="round"/>
<path d="M5.65828 15.8333C6.64994 15.8333 7.45828 15.025 7.45828 14.0333C7.45828 13.0417 6.64994 12.2333 5.65828 12.2333C4.66661 12.2333 3.85828 13.0417 3.85828 14.0333C3.85828 15.025 4.65828 15.8333 5.65828 15.8333Z" stroke="currentColor" stroke-width="1.5" stroke-linecap="round" stroke-linejoin="round"/>
<path d="M14.3416 15.8333C15.3333 15.8333 16.1416 15.025 16.1416 14.0333C16.1416 13.0417 15.3333 12.2333 14.3416 12.2333C13.35 12.2333 12.5416 13.0417 12.5416 14.0333C12.5416 15.025 13.35 15.8333 14.3416 15.8333Z" stroke="currentColor" stroke-width="1.5" stroke-linecap="round" stroke-linejoin="round"/>
</svg>
